# xmcd
#
# Track frame offsets:
#	182
#	18220
#	34267
#	46057
#	59007
#	76732
#	91520
#	106142
#	120657
#	139517
#	154080
#	165737
#	176430
#	188170
#	203505
#	214935
#
# Disc length: 3162 seconds
#
# Revision: 1
# Processed by: cddbd v1.5.1PL2 Copyright (c) Steve Scherf et al.
# Submitted via: audiograbber 1.83.01
#
DISCID=c20c5810
DTITLE=Cissy - ...zu einer Lady biegst auch du mich nicht hin!
DYEAR=1993
DGENRE=
TTITLE0=Gute Fahrt auf allen Wegen
TTITLE1=Zu einer Lady biegst auch Du mich nicht hin
TTITLE2=Gebt mir 'ne Steel-Gitarre
TTITLE3=Sag' was wird sein
TTITLE4=Du hast 'nen Engel zuhaus
TTITLE5=Daddy ist auf der Autobahn
TTITLE6=Wann kommst Du wieder
TTITLE7=Einen Trucker legst Du niemals an die Leine
TTITLE8=Trucker fühl'n sich frei
TTITLE9=Truckin' Cowboy
TTITLE10=Der Spiegeltick
TTITLE11=Truckerfeste
TTITLE12=Die Mariann von nebenan 
TTITLE13=Ich steh' am Fenster
TTITLE14=Samstagabend-Cowboy
TTITLE15=Die Gedanken sind frei
EXTD=
EXTT0=
EXTT1=
EXTT2=
EXTT3=
EXTT4=
EXTT5=
EXTT6=
EXTT7=
EXTT8=
EXTT9=
EXTT10=
EXTT11=
EXTT12=
EXTT13=
EXTT14=
EXTT15=
PLAYORDER=
